<?xml version="1.0" encoding="UTF-8" standalone="no"?><!-- Generator: Gravit.io --><svg xmlns="http://www.w3.org/2000/svg" xmlns:xlink="http://www.w3.org/1999/xlink" style="isolation:isolate" viewBox="0 0 512 512" width="512pt" height="512pt"><defs><clipPath id="_clipPath_P4MiUXB9S3aNLUMNadVrtw22TnlTZd39"><rect width="512" height="512"/></clipPath></defs><g clip-path="url(#_clipPath_P4MiUXB9S3aNLUMNadVrtw22TnlTZd39)"><path d=" M 320.2 243.8 L 270.5 343.2 C 264.5 355.3 247.1 354.9 241.6 342.6 L 184.7 216.3 L 154.7 288 L 60.6 288 L 243.1 474.5 C 250.2 481.8 261.7 481.8 268.8 474.5 L 451.4 288 L 342.3 288 L 320.2 243.8 L 320.2 243.8 Z  M 473.7 73.9 L 471.3 71.4 C 419.8 18.8 335.5 18.8 283.9 71.4 L 256 100 L 228.1 71.5 C 176.6 18.8 92.2 18.8 40.7 71.5 L 38.3 73.9 C -10.4 123.7 -12.5 203 31 256 L 133.4 256 L 169.3 169.8 C 174.7 156.9 192.9 156.6 198.7 169.4 L 256.9 298.7 L 305.9 200.8 C 311.8 189 328.6 189 334.5 200.8 L 362.1 256 L 481 256 C 524.5 203 522.4 123.7 473.7 73.9 L 473.7 73.9 Z " fill="rgb(255,255,255)"/></g></svg>