<?xml version="1.0" encoding="UTF-8" standalone="no"?><!-- Generator: Gravit.io --><svg xmlns="http://www.w3.org/2000/svg" xmlns:xlink="http://www.w3.org/1999/xlink" style="isolation:isolate" viewBox="0 0 640 512" width="640pt" height="512pt"><defs><clipPath id="_clipPath_szdobRapjLI42DN2fA7aRcSKzQGvQnhp"><rect width="640" height="512"/></clipPath></defs><g clip-path="url(#_clipPath_szdobRapjLI42DN2fA7aRcSKzQGvQnhp)"><path d=" M 621.16 54.46 C 582.37 38.19 543.55 32 504.75 32 C 381.58 31.99 258.42 94.34 135.25 94.34 C 104.36 94.34 73.49 90.42 42.6 80.62 C 39.13 79.52 35.65 79 32.25 79 C 15.04 79 0 92.32 0 110.81 L 0 428.07 C 0 440.7 7.23 452.67 18.84 457.53 C 57.63 473.81 96.45 480 135.25 480 C 258.42 480 381.59 417.65 504.76 417.65 C 535.65 417.65 566.52 421.57 597.41 431.37 C 600.88 432.47 604.36 432.99 607.76 432.99 C 624.97 432.99 640.01 419.67 640.01 401.18 L 640.01 83.93 C 640 71.29 632.77 59.33 621.16 54.46 Z  M 320 352 C 275.81 352 240 309.01 240 256 C 240 202.98 275.82 160 320 160 C 364.18 160 400 202.98 400 256 C 400 309.03 364.17 352 320 352 Z " fill="rgb(255,255,255)"/></g></svg>