<?xml version="1.0" encoding="UTF-8" standalone="no"?><!-- Generator: Gravit.io --><svg xmlns="http://www.w3.org/2000/svg" xmlns:xlink="http://www.w3.org/1999/xlink" style="isolation:isolate" viewBox="0 0 448 512" width="448pt" height="512pt"><defs><clipPath id="_clipPath_mr6pvjY3lYjyJogj0oA6kGm9HyKt9Kw2"><rect width="448" height="512"/></clipPath></defs><g clip-path="url(#_clipPath_mr6pvjY3lYjyJogj0oA6kGm9HyKt9Kw2)"><path d=" M 224 256 C 294.7 256 352 198.7 352 128 C 352 57.3 294.7 0 224 0 C 153.3 0 96 57.3 96 128 C 96 198.7 153.3 256 224 256 Z  M 313.6 288 L 296.9 288 C 274.7 298.2 250 304 224 304 C 198 304 173.4 298.2 151.1 288 L 134.4 288 C 60.2 288 0 348.2 0 422.4 L 0 464 C 0 490.5 21.5 512 48 512 L 400 512 C 426.5 512 448 490.5 448 464 L 448 422.4 C 448 348.2 387.8 288 313.6 288 Z " fill="rgb(255,255,255)"/></g></svg>